<svg width="220" height="180" viewBox="0 0 220 180" xmlns="http://www.w3.org/2000/svg" role="img">
<title>Pixel love letter envelope</title>
<desc>A pixel-art envelope with a heart wax seal, used as the site mark and favicon.</desc>
<g class="seal-pulse" style="animation: seal-pulse 1.8s ease-in-out infinite; transform-box: fill-box; transform-origin: center;">
<rect x="30" y="50" width="10" height="10" fill="#3a2410"/>
<rect x="180" y="50" width="10" height="10" fill="#3a2410"/>
<rect x="30" y="60" width="10" height="10" fill="#3a2410"/>
<rect x="180" y="60" width="10" height="10" fill="#3a2410"/>
<rect x="40" y="60" width="10" height="10" fill="#3a2410"/>
<rect x="170" y="60" width="10" height="10" fill="#3a2410"/>
<rect x="30" y="70" width="10" height="10" fill="#3a2410"/>
<rect x="180" y="70" width="10" height="10" fill="#3a2410"/>
<rect x="50" y="70" width="10" height="10" fill="#3a2410"/>
<rect x="160" y="70" width="10" height="10" fill="#3a2410"/>
<rect x="30" y="80" width="10" height="10" fill="#3a2410"/>
<rect x="180" y="80" width="10" height="10" fill="#3a2410"/>
<rect x="60" y="80" width="10" height="10" fill="#3a2410"/>
<rect x="150" y="80" width="10" height="10" fill="#3a2410"/>
<rect x="30" y="90" width="10" height="10" fill="#3a2410"/>
<rect x="180" y="90" width="10" height="10" fill="#3a2410"/>
<rect x="30" y="100" width="10" height="10" fill="#3a2410"/>
<rect x="180" y="100" width="10" height="10" fill="#3a2410"/>
<rect x="30" y="110" width="10" height="10" fill="#3a2410"/>
<rect x="180" y="110" width="10" height="10" fill="#3a2410"/>
<rect x="30" y="120" width="10" height="10" fill="#3a2410"/>
<rect x="180" y="120" width="10" height="10" fill="#3a2410"/>
<rect x="30" y="130" width="10" height="10" fill="#3a2410"/>
<rect x="180" y="130" width="10" height="10" fill="#3a2410"/>
<rect x="30" y="140" width="10" height="10" fill="#3a2410"/>
<rect x="180" y="140" width="10" height="10" fill="#3a2410"/>
<rect x="40" y="140" width="10" height="10" fill="#3a2410"/>
<rect x="170" y="140" width="10" height="10" fill="#3a2410"/>
<rect x="50" y="140" width="10" height="10" fill="#3a2410"/>
<rect x="160" y="140" width="10" height="10" fill="#3a2410"/>
<rect x="60" y="140" width="10" height="10" fill="#3a2410"/>
<rect x="150" y="140" width="10" height="10" fill="#3a2410"/>
<rect x="70" y="140" width="10" height="10" fill="#3a2410"/>
<rect x="140" y="140" width="10" height="10" fill="#3a2410"/>
<rect x="80" y="140" width="10" height="10" fill="#3a2410"/>
<rect x="130" y="140" width="10" height="10" fill="#3a2410"/>
<rect x="90" y="140" width="10" height="10" fill="#3a2410"/>
<rect x="120" y="140" width="10" height="10" fill="#3a2410"/>
<rect x="100" y="140" width="10" height="10" fill="#3a2410"/>
<rect x="110" y="140" width="10" height="10" fill="#3a2410"/>
<rect x="40" y="50" width="10" height="10" fill="#ffd6e0"/>
<rect x="170" y="50" width="10" height="10" fill="#ffd6e0"/>
<rect x="50" y="50" width="10" height="10" fill="#ffd6e0"/>
<rect x="160" y="50" width="10" height="10" fill="#ffd6e0"/>
<rect x="60" y="50" width="10" height="10" fill="#ffd6e0"/>
<rect x="150" y="50" width="10" height="10" fill="#ffd6e0"/>
<rect x="70" y="50" width="10" height="10" fill="#ffd6e0"/>
<rect x="140" y="50" width="10" height="10" fill="#ffd6e0"/>
<rect x="80" y="50" width="10" height="10" fill="#ffd6e0"/>
<rect x="130" y="50" width="10" height="10" fill="#ffd6e0"/>
<rect x="90" y="50" width="10" height="10" fill="#ffd6e0"/>
<rect x="120" y="50" width="10" height="10" fill="#ffd6e0"/>
<rect x="100" y="50" width="10" height="10" fill="#ffd6e0"/>
<rect x="110" y="50" width="10" height="10" fill="#ffd6e0"/>
<rect x="50" y="60" width="10" height="10" fill="#ffd6e0"/>
<rect x="160" y="60" width="10" height="10" fill="#ffd6e0"/>
<rect x="60" y="60" width="10" height="10" fill="#ffd6e0"/>
<rect x="150" y="60" width="10" height="10" fill="#ffd6e0"/>
<rect x="70" y="60" width="10" height="10" fill="#ffd6e0"/>
<rect x="140" y="60" width="10" height="10" fill="#ffd6e0"/>
<rect x="80" y="60" width="10" height="10" fill="#ffd6e0"/>
<rect x="130" y="60" width="10" height="10" fill="#ffd6e0"/>
<rect x="90" y="60" width="10" height="10" fill="#ffd6e0"/>
<rect x="120" y="60" width="10" height="10" fill="#ffd6e0"/>
<rect x="100" y="60" width="10" height="10" fill="#ffd6e0"/>
<rect x="110" y="60" width="10" height="10" fill="#ffd6e0"/>
<rect x="60" y="70" width="10" height="10" fill="#ffd6e0"/>
<rect x="150" y="70" width="10" height="10" fill="#ffd6e0"/>
<rect x="70" y="70" width="10" height="10" fill="#ffd6e0"/>
<rect x="140" y="70" width="10" height="10" fill="#ffd6e0"/>
<rect x="80" y="70" width="10" height="10" fill="#ffd6e0"/>
<rect x="130" y="70" width="10" height="10" fill="#ffd6e0"/>
<rect x="90" y="70" width="10" height="10" fill="#ffd6e0"/>
<rect x="120" y="70" width="10" height="10" fill="#ffd6e0"/>
<rect x="100" y="70" width="10" height="10" fill="#ffd6e0"/>
<rect x="110" y="70" width="10" height="10" fill="#ffd6e0"/>
<rect x="70" y="80" width="10" height="10" fill="#ffd6e0"/>
<rect x="140" y="80" width="10" height="10" fill="#ffd6e0"/>
<rect x="80" y="80" width="10" height="10" fill="#ffd6e0"/>
<rect x="130" y="80" width="10" height="10" fill="#ffd6e0"/>
<rect x="90" y="80" width="10" height="10" fill="#ffd6e0"/>
<rect x="120" y="80" width="10" height="10" fill="#ffd6e0"/>
<rect x="100" y="80" width="10" height="10" fill="#ffd6e0"/>
<rect x="110" y="80" width="10" height="10" fill="#ffd6e0"/>
<rect x="80" y="90" width="10" height="10" fill="#ffd6e0"/>
<rect x="130" y="90" width="10" height="10" fill="#ffd6e0"/>
<rect x="90" y="90" width="10" height="10" fill="#ffd6e0"/>
<rect x="120" y="90" width="10" height="10" fill="#ffd6e0"/>
<rect x="100" y="90" width="10" height="10" fill="#ffd6e0"/>
<rect x="110" y="90" width="10" height="10" fill="#ffd6e0"/>
<rect x="40" y="70" width="10" height="10" fill="#fdf0e8"/>
<rect x="170" y="70" width="10" height="10" fill="#fdf0e8"/>
<rect x="40" y="80" width="10" height="10" fill="#fdf0e8"/>
<rect x="170" y="80" width="10" height="10" fill="#fdf0e8"/>
<rect x="50" y="80" width="10" height="10" fill="#fdf0e8"/>
<rect x="160" y="80" width="10" height="10" fill="#fdf0e8"/>
<rect x="40" y="90" width="10" height="10" fill="#fdf0e8"/>
<rect x="170" y="90" width="10" height="10" fill="#fdf0e8"/>
<rect x="50" y="90" width="10" height="10" fill="#fdf0e8"/>
<rect x="160" y="90" width="10" height="10" fill="#fdf0e8"/>
<rect x="60" y="90" width="10" height="10" fill="#fdf0e8"/>
<rect x="150" y="90" width="10" height="10" fill="#fdf0e8"/>
<rect x="70" y="90" width="10" height="10" fill="#fdf0e8"/>
<rect x="140" y="90" width="10" height="10" fill="#fdf0e8"/>
<rect x="40" y="100" width="10" height="10" fill="#fdf0e8"/>
<rect x="170" y="100" width="10" height="10" fill="#fdf0e8"/>
<rect x="50" y="100" width="10" height="10" fill="#fdf0e8"/>
<rect x="160" y="100" width="10" height="10" fill="#fdf0e8"/>
<rect x="60" y="100" width="10" height="10" fill="#fdf0e8"/>
<rect x="150" y="100" width="10" height="10" fill="#fdf0e8"/>
<rect x="70" y="100" width="10" height="10" fill="#fdf0e8"/>
<rect x="140" y="100" width="10" height="10" fill="#fdf0e8"/>
<rect x="80" y="100" width="10" height="10" fill="#fdf0e8"/>
<rect x="130" y="100" width="10" height="10" fill="#fdf0e8"/>
<rect x="90" y="100" width="10" height="10" fill="#fdf0e8"/>
<rect x="120" y="100" width="10" height="10" fill="#fdf0e8"/>
<rect x="40" y="110" width="10" height="10" fill="#fdf0e8"/>
<rect x="170" y="110" width="10" height="10" fill="#fdf0e8"/>
<rect x="50" y="110" width="10" height="10" fill="#fdf0e8"/>
<rect x="160" y="110" width="10" height="10" fill="#fdf0e8"/>
<rect x="60" y="110" width="10" height="10" fill="#fdf0e8"/>
<rect x="150" y="110" width="10" height="10" fill="#fdf0e8"/>
<rect x="70" y="110" width="10" height="10" fill="#fdf0e8"/>
<rect x="140" y="110" width="10" height="10" fill="#fdf0e8"/>
<rect x="80" y="110" width="10" height="10" fill="#fdf0e8"/>
<rect x="130" y="110" width="10" height="10" fill="#fdf0e8"/>
<rect x="40" y="120" width="10" height="10" fill="#fdf0e8"/>
<rect x="170" y="120" width="10" height="10" fill="#fdf0e8"/>
<rect x="50" y="120" width="10" height="10" fill="#fdf0e8"/>
<rect x="160" y="120" width="10" height="10" fill="#fdf0e8"/>
<rect x="60" y="120" width="10" height="10" fill="#fdf0e8"/>
<rect x="150" y="120" width="10" height="10" fill="#fdf0e8"/>
<rect x="70" y="120" width="10" height="10" fill="#fdf0e8"/>
<rect x="140" y="120" width="10" height="10" fill="#fdf0e8"/>
<rect x="80" y="120" width="10" height="10" fill="#fdf0e8"/>
<rect x="130" y="120" width="10" height="10" fill="#fdf0e8"/>
<rect x="90" y="120" width="10" height="10" fill="#fdf0e8"/>
<rect x="120" y="120" width="10" height="10" fill="#fdf0e8"/>
<rect x="40" y="130" width="10" height="10" fill="#fdf0e8"/>
<rect x="170" y="130" width="10" height="10" fill="#fdf0e8"/>
<rect x="50" y="130" width="10" height="10" fill="#fdf0e8"/>
<rect x="160" y="130" width="10" height="10" fill="#fdf0e8"/>
<rect x="60" y="130" width="10" height="10" fill="#fdf0e8"/>
<rect x="150" y="130" width="10" height="10" fill="#fdf0e8"/>
<rect x="70" y="130" width="10" height="10" fill="#fdf0e8"/>
<rect x="140" y="130" width="10" height="10" fill="#fdf0e8"/>
<rect x="80" y="130" width="10" height="10" fill="#fdf0e8"/>
<rect x="130" y="130" width="10" height="10" fill="#fdf0e8"/>
<rect x="90" y="130" width="10" height="10" fill="#fdf0e8"/>
<rect x="120" y="130" width="10" height="10" fill="#fdf0e8"/>
<rect x="100" y="130" width="10" height="10" fill="#fdf0e8"/>
<rect x="110" y="130" width="10" height="10" fill="#fdf0e8"/>
<rect x="100" y="100" width="10" height="10" fill="#e0203a"/>
<rect x="110" y="100" width="10" height="10" fill="#e0203a"/>
<rect x="90" y="110" width="10" height="10" fill="#e0203a"/>
<rect x="120" y="110" width="10" height="10" fill="#e0203a"/>
<rect x="100" y="110" width="10" height="10" fill="#e0203a"/>
<rect x="110" y="110" width="10" height="10" fill="#e0203a"/>
<rect x="100" y="120" width="10" height="10" fill="#e0203a"/>
<rect x="110" y="120" width="10" height="10" fill="#e0203a"/>
</g>
<style>
@keyframes seal-pulse{ 0%,100%{ transform: scale(1); } 50%{ transform: scale(1.06); } }
</style>
</svg>