<svg width="204" height="172" viewBox="0 0 204 172" xmlns="http://www.w3.org/2000/svg" role="img">
<title>Pixel envelope favicon</title>
<desc>A simplified pixel-art envelope with a heart seal, sized for favicon use.</desc>
<rect x="22" y="38" width="16" height="16" fill="#3a2410"/>
<rect x="38" y="38" width="16" height="16" fill="#ffd6e0"/>
<rect x="54" y="38" width="16" height="16" fill="#ffd6e0"/>
<rect x="70" y="38" width="16" height="16" fill="#ffd6e0"/>
<rect x="86" y="38" width="16" height="16" fill="#ffd6e0"/>
<rect x="102" y="38" width="16" height="16" fill="#ffd6e0"/>
<rect x="118" y="38" width="16" height="16" fill="#ffd6e0"/>
<rect x="134" y="38" width="16" height="16" fill="#ffd6e0"/>
<rect x="150" y="38" width="16" height="16" fill="#ffd6e0"/>
<rect x="166" y="38" width="16" height="16" fill="#3a2410"/>
<rect x="22" y="54" width="16" height="16" fill="#3a2410"/>
<rect x="38" y="54" width="16" height="16" fill="#3a2410"/>
<rect x="54" y="54" width="16" height="16" fill="#ffd6e0"/>
<rect x="70" y="54" width="16" height="16" fill="#ffd6e0"/>
<rect x="86" y="54" width="16" height="16" fill="#ffd6e0"/>
<rect x="102" y="54" width="16" height="16" fill="#ffd6e0"/>
<rect x="118" y="54" width="16" height="16" fill="#ffd6e0"/>
<rect x="134" y="54" width="16" height="16" fill="#ffd6e0"/>
<rect x="150" y="54" width="16" height="16" fill="#3a2410"/>
<rect x="166" y="54" width="16" height="16" fill="#3a2410"/>
<rect x="22" y="70" width="16" height="16" fill="#3a2410"/>
<rect x="38" y="70" width="16" height="16" fill="#fdf0e8"/>
<rect x="54" y="70" width="16" height="16" fill="#3a2410"/>
<rect x="70" y="70" width="16" height="16" fill="#ffd6e0"/>
<rect x="86" y="70" width="16" height="16" fill="#ffd6e0"/>
<rect x="102" y="70" width="16" height="16" fill="#ffd6e0"/>
<rect x="118" y="70" width="16" height="16" fill="#ffd6e0"/>
<rect x="134" y="70" width="16" height="16" fill="#3a2410"/>
<rect x="150" y="70" width="16" height="16" fill="#fdf0e8"/>
<rect x="166" y="70" width="16" height="16" fill="#3a2410"/>
<rect x="22" y="86" width="16" height="16" fill="#3a2410"/>
<rect x="38" y="86" width="16" height="16" fill="#fdf0e8"/>
<rect x="54" y="86" width="16" height="16" fill="#fdf0e8"/>
<rect x="70" y="86" width="16" height="16" fill="#3a2410"/>
<rect x="86" y="86" width="16" height="16" fill="#e0203a"/>
<rect x="102" y="86" width="16" height="16" fill="#e0203a"/>
<rect x="118" y="86" width="16" height="16" fill="#3a2410"/>
<rect x="134" y="86" width="16" height="16" fill="#fdf0e8"/>
<rect x="150" y="86" width="16" height="16" fill="#fdf0e8"/>
<rect x="166" y="86" width="16" height="16" fill="#3a2410"/>
<rect x="22" y="102" width="16" height="16" fill="#3a2410"/>
<rect x="38" y="102" width="16" height="16" fill="#fdf0e8"/>
<rect x="54" y="102" width="16" height="16" fill="#fdf0e8"/>
<rect x="70" y="102" width="16" height="16" fill="#e0203a"/>
<rect x="86" y="102" width="16" height="16" fill="#e0203a"/>
<rect x="102" y="102" width="16" height="16" fill="#e0203a"/>
<rect x="118" y="102" width="16" height="16" fill="#e0203a"/>
<rect x="134" y="102" width="16" height="16" fill="#fdf0e8"/>
<rect x="150" y="102" width="16" height="16" fill="#fdf0e8"/>
<rect x="166" y="102" width="16" height="16" fill="#3a2410"/>
<rect x="22" y="118" width="16" height="16" fill="#3a2410"/>
<rect x="38" y="118" width="16" height="16" fill="#fdf0e8"/>
<rect x="54" y="118" width="16" height="16" fill="#fdf0e8"/>
<rect x="70" y="118" width="16" height="16" fill="#fdf0e8"/>
<rect x="86" y="118" width="16" height="16" fill="#e0203a"/>
<rect x="102" y="118" width="16" height="16" fill="#e0203a"/>
<rect x="118" y="118" width="16" height="16" fill="#fdf0e8"/>
<rect x="134" y="118" width="16" height="16" fill="#fdf0e8"/>
<rect x="150" y="118" width="16" height="16" fill="#fdf0e8"/>
<rect x="166" y="118" width="16" height="16" fill="#3a2410"/>
<rect x="22" y="134" width="16" height="16" fill="#3a2410"/>
<rect x="38" y="134" width="16" height="16" fill="#3a2410"/>
<rect x="54" y="134" width="16" height="16" fill="#3a2410"/>
<rect x="70" y="134" width="16" height="16" fill="#3a2410"/>
<rect x="86" y="134" width="16" height="16" fill="#3a2410"/>
<rect x="102" y="134" width="16" height="16" fill="#3a2410"/>
<rect x="118" y="134" width="16" height="16" fill="#3a2410"/>
<rect x="134" y="134" width="16" height="16" fill="#3a2410"/>
<rect x="150" y="134" width="16" height="16" fill="#3a2410"/>
<rect x="166" y="134" width="16" height="16" fill="#3a2410"/>
</svg>